<svg xmlns="http://www.w3.org/2000/svg" xmlns:xlink="http://www.w3.org/1999/xlink" preserveAspectRatio="xMidYMid" width="200" height="53.001" viewBox="-0.001 0 883.002 234">
  <defs>
    <style>
      .cls-1 {
        fill: #fefefe;
        fill-rule: evenodd;
      }
    </style>
  </defs>
  <path d="M829.936,196.071 C828.702,197.319 827.213,197.941 825.474,197.941 L811.985,197.941 C808.465,197.941 806.117,196.769 804.945,194.421 L736.965,65.281 C736.670,64.841 736.450,64.621 736.305,64.621 C736.157,64.621 736.085,64.841 736.085,65.281 L736.085,193.761 C736.085,194.937 735.717,195.927 734.985,196.731 C734.250,197.539 733.297,197.941 732.125,197.941 L720.685,197.941 C719.510,197.941 718.557,197.797 717.825,197.501 C717.090,197.209 716.725,196.477 716.725,195.301 L716.725,40.641 C716.725,38.881 717.347,37.417 718.595,36.241 C719.840,35.069 721.345,34.481 723.105,34.481 L735.205,34.481 C738.285,34.481 740.337,34.811 741.365,35.471 C742.390,36.131 743.345,37.269 744.225,38.881 L811.765,167.361 L812.205,168.021 C812.350,168.021 812.425,167.801 812.425,167.361 L812.425,38.661 C812.425,37.489 812.786,36.499 813.512,35.691 C814.237,34.887 815.179,34.481 816.341,34.481 L827.870,34.481 C829.028,34.481 829.970,34.887 830.696,35.691 C831.421,36.499 831.785,37.489 831.785,38.661 L831.785,191.561 C831.785,193.321 831.167,194.827 829.936,196.071 ZM666.238,121.931 C660.738,125.819 654.248,128.607 646.768,130.291 C639.288,131.979 631.072,132.821 622.128,132.821 C618.608,132.821 614.792,132.711 610.688,132.491 C606.580,132.271 603.060,132.017 600.128,131.721 L600.128,193.541 C600.128,194.717 599.760,195.741 599.028,196.621 C598.292,197.501 597.340,197.941 596.168,197.941 L584.288,197.941 C583.112,197.941 582.160,197.501 581.428,196.621 C580.692,195.741 580.328,194.717 580.328,193.541 L580.328,40.201 C580.328,36.977 582.088,35.141 585.608,34.701 C590.300,34.117 595.948,33.677 602.548,33.381 C609.148,33.089 615.672,32.941 622.128,32.941 C631.072,32.941 639.288,33.787 646.768,35.471 C654.248,37.159 660.738,39.871 666.238,43.611 C671.738,47.351 676.028,52.267 679.108,58.351 C682.188,64.439 683.728,71.881 683.728,80.681 L683.728,83.541 C683.728,92.781 682.188,100.519 679.108,106.751 C676.028,112.987 671.738,118.047 666.238,121.931 ZM663.708,80.578 C663.708,69.468 660.332,61.575 653.588,56.897 C646.840,52.222 636.352,49.881 622.128,49.881 C618.752,49.881 614.902,49.957 610.578,50.101 C606.250,50.249 602.768,50.469 600.128,50.761 L600.128,115.001 C601.448,115.001 603.060,115.077 604.968,115.221 C606.872,115.369 608.852,115.479 610.908,115.551 C612.960,115.627 614.978,115.699 616.958,115.771 C618.938,115.847 620.660,115.881 622.128,115.881 C637.232,115.881 647.940,113.323 654.248,108.208 C660.552,103.093 663.708,94.833 663.708,83.428 L663.708,80.578 ZM509.050,182.761 C508.022,186.281 506.665,189.107 504.980,191.231 C503.292,193.359 501.460,195.047 499.480,196.291 C497.500,197.539 495.372,198.381 493.100,198.821 C490.825,199.261 488.662,199.481 486.610,199.481 C484.555,199.481 482.430,199.261 480.230,198.821 C478.030,198.381 475.902,197.539 473.850,196.291 C471.795,195.047 469.925,193.359 468.240,191.231 C466.552,189.107 465.195,186.281 464.170,182.761 L423.470,39.541 C423.322,39.249 423.250,38.809 423.250,38.221 C423.250,37.049 423.615,36.131 424.350,35.471 C425.082,34.811 426.035,34.481 427.210,34.481 L439.970,34.481 C440.850,34.481 441.655,34.811 442.390,35.471 C443.122,36.131 443.635,36.901 443.930,37.781 L482.210,177.921 C483.090,181.001 484.555,182.541 486.610,182.541 C488.515,182.541 489.910,181.001 490.790,177.921 L529.290,37.781 C529.582,36.901 530.060,36.131 530.720,35.471 C531.380,34.811 532.150,34.481 533.030,34.481 L546.010,34.481 C548.502,34.481 549.750,35.729 549.750,38.221 C549.750,38.809 549.675,39.249 549.530,39.541 L509.050,182.761 ZM400.371,45.921 L389.811,45.921 C384.675,45.921 381.155,46.949 379.251,49.001 C377.343,51.057 376.391,55.089 376.391,61.101 L376.391,76.941 L399.491,76.941 C400.663,76.941 401.653,77.309 402.461,78.041 C403.265,78.777 403.671,79.729 403.671,80.901 L403.671,89.481 C403.671,91.977 402.275,93.221 399.491,93.221 L376.391,93.221 L376.391,193.541 C376.391,194.717 375.985,195.741 375.181,196.621 C374.373,197.501 373.383,197.941 372.211,197.941 L361.431,197.941 C360.255,197.941 359.231,197.501 358.351,196.621 C357.471,195.741 357.031,194.717 357.031,193.541 L357.031,93.221 L335.691,90.801 C332.903,90.509 331.511,89.189 331.511,86.841 L331.511,80.901 C331.511,79.729 331.913,78.777 332.721,78.041 C333.525,77.309 334.515,76.941 335.691,76.941 L357.031,76.941 L357.031,61.101 C357.031,55.237 357.725,50.321 359.121,46.361 C360.513,42.401 362.531,39.249 365.171,36.901 C367.811,34.557 371.035,32.907 374.851,31.951 C378.663,30.999 382.991,30.521 387.831,30.521 C390.763,30.521 393.183,30.669 395.091,30.961 C396.995,31.257 398.683,31.549 400.151,31.841 C402.935,32.577 404.331,33.749 404.331,35.361 L404.331,42.621 C404.331,44.821 403.011,45.921 400.371,45.921 ZM298.954,197.941 L287.514,197.941 C286.338,197.941 285.386,197.501 284.654,196.621 C283.918,195.741 283.554,194.717 283.554,193.541 L283.554,36.681 C283.554,35.509 283.918,34.519 284.654,33.711 C285.386,32.907 286.338,32.501 287.514,32.501 L298.954,32.501 C300.126,32.501 301.078,32.907 301.814,33.711 C302.546,34.519 302.914,35.509 302.914,36.681 L302.914,193.541 C302.914,194.717 302.546,195.741 301.814,196.621 C301.078,197.501 300.126,197.941 298.954,197.941 ZM244.626,143.601 L171.136,143.601 L171.136,146.681 C171.136,159.737 173.700,168.977 178.836,174.401 C183.968,179.829 191.596,182.541 201.716,182.541 C208.168,182.541 215.026,182.321 222.286,181.881 C229.546,181.441 235.740,180.857 240.876,180.121 L241.976,180.121 C242.856,180.121 243.660,180.341 244.396,180.781 C245.128,181.221 245.496,182.029 245.496,183.201 L245.496,190.681 C245.496,192.149 245.200,193.287 244.616,194.091 C244.028,194.899 242.856,195.449 241.096,195.741 C234.788,196.917 228.518,197.831 222.286,198.491 C216.050,199.151 209.196,199.481 201.716,199.481 C195.408,199.481 189.248,198.635 183.236,196.951 C177.220,195.267 171.906,192.407 167.286,188.371 C162.666,184.339 158.926,178.949 156.066,172.201 C153.206,165.457 151.776,156.949 151.776,146.681 L151.776,126.881 C151.776,111.041 155.945,98.501 164.285,89.261 C172.624,80.021 184.700,75.401 200.506,75.401 C208.553,75.401 215.576,76.611 221.577,79.031 C227.576,81.451 232.588,84.899 236.613,89.371 C240.635,93.847 243.674,99.271 245.722,105.651 C247.771,112.031 248.796,119.109 248.796,126.881 L248.796,138.761 C248.796,141.989 247.403,143.601 244.626,143.601 ZM229.436,126.881 C229.436,114.417 227.050,105.541 222.286,100.261 C217.518,94.981 210.296,92.341 200.616,92.341 C191.080,92.341 183.786,95.129 178.726,100.701 C173.666,106.277 171.136,115.001 171.136,126.881 L171.136,128.861 L229.436,128.861 L229.436,126.881 ZM112.948,185.511 C108.913,189.691 103.378,193.067 96.338,195.631 C89.298,198.195 80.350,199.481 69.498,199.481 C61.723,199.481 54.903,199.151 49.038,198.491 C43.170,197.831 37.818,197.137 32.978,196.401 C31.070,196.109 29.898,195.669 29.458,195.081 C29.018,194.497 28.798,193.617 28.798,192.441 L28.798,183.641 C28.798,182.469 29.163,181.589 29.898,181.001 C30.630,180.417 31.510,180.121 32.538,180.121 L33.198,180.121 C35.690,180.417 38.513,180.637 41.668,180.781 C44.820,180.929 48.048,181.039 51.348,181.111 C54.648,181.187 57.873,181.259 61.028,181.331 C64.180,181.407 67.003,181.441 69.498,181.441 C76.098,181.441 81.560,180.819 85.888,179.571 C90.213,178.327 93.623,176.567 96.118,174.291 C98.610,172.019 100.370,169.269 101.398,166.041 C102.423,162.817 102.938,159.297 102.938,155.481 C102.938,152.697 102.498,150.167 101.618,147.891 C100.738,145.619 99.270,143.381 97.218,141.181 C95.163,138.981 92.450,136.671 89.078,134.251 C85.703,131.831 81.523,129.081 76.538,126.001 L55.198,113.021 C45.078,106.861 37.488,100.667 32.428,94.431 C27.368,88.199 24.838,80.681 24.838,71.881 C24.838,58.537 29.420,48.709 38.588,42.401 C47.753,36.097 60.770,32.941 77.638,32.941 C80.863,32.941 84.273,33.017 87.868,33.161 C91.460,33.309 94.980,33.491 98.428,33.711 C101.873,33.931 105.138,34.227 108.218,34.591 C111.298,34.959 113.863,35.289 115.918,35.581 C118.410,36.021 119.658,37.269 119.658,39.321 L119.658,48.781 C119.658,51.129 118.410,52.301 115.918,52.301 L115.478,52.301 C110.638,52.009 104.733,51.717 97.768,51.421 C90.800,51.129 84.090,50.981 77.638,50.981 C66.198,50.981 57.948,52.449 52.888,55.381 C47.828,58.317 45.298,63.817 45.298,71.881 C45.298,77.017 47.199,81.489 51.001,85.301 C54.803,89.117 60.874,93.517 69.213,98.501 L89.395,110.601 C95.682,114.417 101.020,118.081 105.410,121.601 C109.796,125.121 113.381,128.641 116.159,132.161 C118.936,135.681 120.913,139.349 122.082,143.161 C123.250,146.977 123.838,151.081 123.838,155.481 C123.838,160.761 123.030,166.041 121.418,171.321 C119.803,176.601 116.980,181.331 112.948,185.511 Z" class="cls-1"/>
</svg>
